<svg xmlns="http://www.w3.org/2000/svg" width="420" height="96" viewBox="0 0 420 96" role="img" aria-labelledby="title desc">
  <title id="title">RENASCER</title>
  <desc id="desc">RENASCER brand logo</desc>
  <rect width="420" height="96" fill="none"/>
  <g transform="translate(10 10)">
    <path
      d="M9 56 C30 54 48 46 60 31 C54 51 37 70 15 72 C29 83 52 81 69 62 C83 46 91 25 94 6 C85 19 74 30 61 38 C58 19 35 11 10 21 C31 23 38 43 9 56Z"
      fill="#082b50"
    />
    <path
      d="M2 67 C23 64 42 55 62 39"
      fill="none"
      stroke="#9aa4b2"
      stroke-width="6"
      stroke-linecap="round"
    />
  </g>
  <text x="119" y="43" fill="#082b50" font-family="Times New Roman, Yu Mincho, serif" font-size="28" letter-spacing="9">RENASCER</text>
  <text x="124" y="68" fill="#526173" font-family="Hiragino Sans, Hiragino Kaku Gothic ProN, Meiryo, sans-serif" font-size="12" letter-spacing="8">レナセール</text>
</svg>
